<?xml version="1.0" encoding="UTF-8" standalone="no"?>
<svg
   xmlns:dc="http://purl.org/dc/elements/1.1/"
   xmlns:cc="http://creativecommons.org/ns#"
   xmlns:rdf="http://www.w3.org/1999/02/22-rdf-syntax-ns#"
   xmlns:svg="http://www.w3.org/2000/svg"
   xmlns="http://www.w3.org/2000/svg"
   viewBox="0 0 682.66669 426.66666"
   height="426.66666"
   width="682.66669"
   xml:space="preserve"
   id="svg2"
   version="1.1"><metadata
     id="metadata8"><rdf:RDF><cc:Work
         rdf:about=""><dc:format>image/svg+xml</dc:format><dc:type
           rdf:resource="http://purl.org/dc/dcmitype/StillImage" /><dc:title></dc:title></cc:Work></rdf:RDF></metadata><defs
     id="defs6" /><g
     transform="matrix(1.3333333,0,0,-1.3333333,0,426.66667)"
     id="g10"><g
       transform="scale(0.1)"
       id="g12"><path
         id="path14"
         style="fill:#231f20;fill-opacity:1;fill-rule:evenodd;stroke:none"
         d="M 563.953,3191.51 1115.13,1920.23 563.953,648.918 12.793,1920.23 563.953,3191.51" /><path
         id="path16"
         style="fill:#ffffff;fill-opacity:1;fill-rule:evenodd;stroke:none"
         d="m 488.801,1181.7 c 0,35.73 25.629,62.32 46.285,62.32 17.394,0 58.543,0 75.934,0 25.695,0 45.812,-26.2 46.921,-47.45 0.672,-12.88 0.551,-50.82 0.551,-50.82 h -55.488 v 18.07 c 0,0 0.855,10.17 -2.68,15.04 -2.601,3.57 -7.527,3.54 -7.527,3.54 l -29.379,0.06 c 0,0 -5.629,0.69 -8.867,-2.26 -4.863,-4.43 -4.121,-18.59 -4.121,-18.59 l -0.446,-147.05 c 0,0 -0.746,-14.15 4.125,-18.576 3.235,-2.957 8.864,-2.265 8.864,-2.265 l 29.386,0.062 c 0,0 4.918,-0.031 7.512,3.543 3.551,4.866 2.688,15.036 2.688,15.036 v 18.07 h 55.488 c 0,0 0.125,-37.95 -0.559,-50.821 -1.093,-21.25 -21.218,-47.453 -46.91,-47.453 -17.39,0 -58.547,0 -75.937,0 -20.657,0 -46.293,26.594 -46.293,62.328 0,3.864 0.453,183.346 0.453,187.216 z m 346.586,561.13 -0.41,349.96 c 0,0 81.062,-0.39 97.535,-0.39 34.164,0 64.07,-19.52 64.07,-55.52 0,-31.22 0.695,-84.2 -0.121,-101.27 -1.797,-37.46 -7.191,-51.8 -29.195,-59.89 -0.297,-0.54 37.824,-133.42 37.824,-133.42 l -56.813,-0.6 -32.668,132.75 -22.773,0.11 0.121,-132.26 -57.57,0.53 z m -345.578,1171.07 108.175,0.55 c 21.215,0 34.594,-7.86 46.657,-20.2 12.062,-12.36 13.285,-43.26 13.285,-55.03 0,-11.78 0,-177.36 0,-189.13 0,-11.78 1.929,-41.6 -13.395,-58.63 -15.312,-17.03 -32.672,-17.66 -45.371,-17.66 -12.711,0 -110.406,0.44 -110.406,0.44 z m 61.148,-56.15 31.559,0.14 c 6.187,0 10.082,-1.95 13.605,-5.02 3.52,-3.06 3.875,-10.72 3.875,-13.65 0,-2.9 0,-188.84 0,-191.75 0,-2.95 0.578,-10.34 -3.894,-14.57 -4.465,-4.22 -9.539,-4.36 -13.25,-4.36 -3.696,0 -32.211,0.11 -32.211,0.11 z M 407.07,2404.79 573.32,2547.93 745.41,2404.79 H 654.027 L 607.48,2439.85 607.469,2320 c 0,0 -111.824,-19.43 -146.793,-48.89 -25.399,-21.4 -8.586,-47.82 -8.586,-47.82 0,0 47.254,39.62 158.582,41.98 92.648,1.96 169.308,-28.75 170.203,-87.62 0.883,-58.87 -73.777,-82.83 -171.379,-85.82 -94.797,-2.9 -157.023,37.49 -157.023,37.49 0,0 -15.84,-33.78 -12.895,-56.23 2.375,-18.08 17.317,-37.13 17.317,-37.13 0,0 76.433,35.94 151.429,35.94 108.051,0 178.028,-29.69 178.078,-81.06 0.043,-51.35 -72.339,-79.43 -164.015,-82.99 -90.227,-3.52 -168.746,37.49 -168.746,37.49 0,0 -16.399,-13.85 -16.399,-37.49 0,-22.88 26.86,-52.01 26.86,-52.01 0,0 60.867,31.78 151.253,32.09 111.458,0.38 172.969,-44.69 172.614,-81.53 -0.348,-36.83 -58.008,-79.4 -171.442,-80.19 -90.918,-0.64 -149.992,28.13 -149.992,28.13 0,0 -5.094,-32.57 28.789,-49.8 44.91,-22.84 118.313,-19.22 118.313,-19.22 l 0.164,-65.92 h 122.117 l -23.645,-48.03 H 436.324 l -23.449,48.03 h 127.066 l 0.446,20.06 c 0,0 -119.75,2.34 -136.328,93.9 -8.469,46.75 16.859,78.3 16.859,78.3 0,0 -50.398,52.54 -45.699,107.81 4.687,55.08 35.187,82.95 35.187,82.95 0,0 -30.945,32.89 -30.945,79.32 0,46.42 26.254,96.79 26.254,96.79 0,0 -18.246,15.28 -17.574,59.77 1.558,104.6 152.402,125.78 152.402,125.78 l 0.988,75.77 -42.187,-35.15 z m 290.477,-863.32 -20.012,-40.65 H 470.773 l -19.847,40.65 z m -34.734,-70.55 -19.469,-39.54 h -138.66 l -19.313,39.54 z m -34.188,-69.44 -17.094,-34.71 H 536.23 l -16.953,34.71 z m -31.812,-64.61 -15.438,-31.36 h -15.238 l -15.313,31.36 z M 286.699,2092.4 347.395,1742.3 H 283.25 l -10.395,57.86 -52.019,-0.28 -8.586,-57.58 h -66.426 l 58.321,349.49 82.554,0.61 z m -57.097,-226.06 h 32.336 l -17.075,140.47 z m 692.683,69.35 c 8.379,0.26 18.137,3.72 17.348,14.74 -0.434,6.17 -0.039,57.09 -0.039,68.59 0,9.32 -5.125,18.63 -15.246,18.63 -14.41,0 -31.34,-0.56 -31.34,-0.56 l -0.172,-101.88 c 0,0 15.543,0.04 29.449,0.48 z M 721.996,1804.73 c 0,-16.83 -53.246,-30.47 -118.941,-30.47 -65.696,0 -118.942,30.47 -118.942,30.47 0,0 53.246,30.47 118.942,30.47 65.695,0 118.941,-13.64 118.941,-30.47 z m 0,183.98 c 0,-16.83 -53.246,-30.46 -118.941,-30.46 -65.696,0 -118.942,30.46 -118.942,30.46 0,0 53.246,30.47 118.942,30.47 65.695,0 118.941,-13.64 118.941,-30.47 z m 0,188.67 c 0,-16.83 -53.246,-30.48 -118.941,-30.48 -65.696,0 -118.942,30.48 -118.942,30.48 0,0 53.246,30.46 118.942,30.46 65.695,0 118.941,-13.63 118.941,-30.46" /><path
         id="path18"
         style="fill:#231f20;fill-opacity:1;fill-rule:evenodd;stroke:none"
         d="m 4750.42,3181.31 c 205.71,-272 328.52,-744.69 328.52,-1264.45 0,-517.14 -121.89,-988.598 -326.05,-1261.157 0,0 34.63,-0.676 35.47,0.469 199.99,279.609 324.78,754.298 324.78,1266.538 0,515 -125.76,979.4 -327.41,1258.52 0.1,0.11 -35.31,0.08 -35.31,0.08" /><path
         id="path20"
         style="fill:#231f20;fill-opacity:1;fill-rule:evenodd;stroke:none"
         d="m 1910.42,3181.31 c 205.72,-272 328.53,-744.69 328.53,-1264.45 0,-517.14 -121.89,-988.598 -326.06,-1261.157 0,0 34.64,-0.676 35.47,0.469 199.99,279.609 324.79,754.298 324.79,1266.538 0,515 -125.76,979.4 -327.41,1258.52 0.09,0.11 -35.32,0.08 -35.32,0.08" /><path
         id="path22"
         style="fill:#231f20;fill-opacity:1;fill-rule:evenodd;stroke:none"
         d="m 958.344,3181.31 c 205.716,-272 328.526,-744.69 328.526,-1264.45 0,-517.14 -121.89,-988.598 -326.054,-1261.157 0,0 34.629,-0.676 35.469,0.469 199.985,279.609 324.785,754.298 324.785,1266.538 0,515 -125.76,979.4 -327.41,1258.52 0.094,0.11 -35.316,0.08 -35.316,0.08" /><path
         id="path24"
         style="fill:#231f20;fill-opacity:1;fill-rule:evenodd;stroke:none"
         d="m 2863.75,3181.31 c 205.71,-272 328.54,-744.69 328.54,-1264.45 0,-517.14 -121.91,-988.598 -326.07,-1261.157 0,0 34.64,-0.676 35.47,0.469 199.99,279.609 324.79,754.298 324.79,1266.538 0,515 -125.77,979.4 -327.42,1258.52 0.1,0.11 -35.31,0.08 -35.31,0.08" /><path
         id="path26"
         style="fill:#231f20;fill-opacity:1;fill-rule:evenodd;stroke:none"
         d="m 3803.75,3181.31 c 205.71,-272 328.52,-744.69 328.52,-1264.45 0,-517.14 -121.89,-988.598 -326.05,-1261.157 0,0 34.64,-0.676 35.47,0.469 199.99,279.609 324.79,754.298 324.79,1266.538 0,515 -125.77,979.4 -327.42,1258.52 0.1,0.11 -35.31,0.08 -35.31,0.08" /><path
         id="path28"
         style="fill:#00adef;fill-opacity:1;fill-rule:evenodd;stroke:none"
         d="m 1427.55,1552.96 284.48,-0.75 c 186.92,-0.48 320.64,-83.73 309.54,-308.46 -11.2,-226.73 -158.71,-420.781 -447.76,-420.781 h -325.83 l 193.47,739.851 z m 53.23,-566.565 h 125.63 c 164.44,0 219.73,147.075 224.42,242.035 5.87,118.5 -48.24,160.39 -136.07,160.39 h -109.3 L 1480.78,986.395" /><path
         id="path30"
         style="fill:none;stroke:#231f20;stroke-width:28.3465004;stroke-linecap:butt;stroke-linejoin:miter;stroke-miterlimit:2.61310005;stroke-dasharray:none;stroke-opacity:1"
         d="m 1427.55,1552.96 284.48,-0.75 c 186.92,-0.48 320.64,-83.73 309.54,-308.46 -11.2,-226.73 -158.71,-420.781 -447.76,-420.781 h -325.83 l 193.47,739.851 m 39.33,-576.425 h 125.63 c 164.44,0 219.73,147.075 224.42,242.035 5.87,118.5 -48.24,160.39 -136.07,160.39 h -109.3 z" /><path
         id="path32"
         style="fill:#00adef;fill-opacity:1;fill-rule:evenodd;stroke:none"
         d="m 2596.46,1552.21 h 192 l 83.43,-729.241 h -191 l -10.9,130.722 h -256.36 l -80.01,-130.722 h -199.17 z m -102.32,-457.55 h 166.5 l -14.6,262.49 h -2.06 l -149.84,-262.49" /><path
         id="path34"
         style="fill:none;stroke:#231f20;stroke-width:28.3465004;stroke-linecap:butt;stroke-linejoin:miter;stroke-miterlimit:2.61310005;stroke-dasharray:none;stroke-opacity:1"
         d="m 2596.46,1552.21 h 192 l 83.43,-729.241 h -191 l -10.9,130.722 h -256.36 l -80.01,-130.722 h -199.17 z m -102.32,-457.55 h 166.5 l -14.6,262.49 h -2.06 z" /><path
         id="path36"
         style="fill:#00adef;fill-opacity:1;fill-rule:evenodd;stroke:none"
         d="m 3308.34,1552.21 h 357.48 c 132.78,0 232.26,-33.69 224.58,-188.92 -5.41,-109.31 -61.37,-186.93 -176.54,-203.29 l -0.1,-2.02 c 53.47,-13.31 72.03,-51.08 68.54,-121.54 -2.62,-53.127 -7.73,-93.971 -9.82,-135.854 -1.26,-25.539 -2.8,-57.18 7.41,-77.617 h -191 c -2.35,14.289 -4.78,27.566 -4.05,41.855 1.89,37.813 8.89,76.629 11.31,125.653 3.2,64.343 -22.71,98.053 -90.13,98.053 H 3379.38 L 3311.06,822.969 H 3121.1 Z m 106.61,-322.75 h 151.15 c 68.47,0 128.73,21.46 132.61,100.12 3.08,62.28 -48.33,75.55 -98.4,75.55 h -139.9 l -45.46,-175.67" /><path
         id="path38"
         style="fill:none;stroke:#231f20;stroke-width:28.3465004;stroke-linecap:butt;stroke-linejoin:miter;stroke-miterlimit:2.61310005;stroke-dasharray:none;stroke-opacity:1"
         d="m 3308.34,1552.21 h 357.48 c 132.78,0 232.26,-33.69 224.58,-188.92 -5.41,-109.31 -61.37,-186.93 -176.54,-203.29 l -0.1,-2.02 c 53.47,-13.31 72.03,-51.08 68.54,-121.54 -2.62,-53.127 -7.73,-93.971 -9.82,-135.854 -1.26,-25.539 -2.8,-57.18 7.41,-77.617 h -191 c -2.35,14.289 -4.78,27.566 -4.05,41.855 1.89,37.813 8.89,76.629 11.31,125.653 3.2,64.343 -22.71,98.053 -90.13,98.053 H 3379.38 L 3311.06,822.969 H 3121.1 Z m 106.61,-322.75 h 151.15 c 68.47,0 128.73,21.46 132.61,100.12 3.08,62.28 -48.33,75.55 -98.4,75.55 h -139.9 z" /><path
         id="path40"
         style="fill:#00adef;fill-opacity:1;fill-rule:evenodd;stroke:none"
         d="m 4667.13,1289.74 c 11.51,67.41 -22.58,121.53 -111.45,121.53 -144.02,0 -206.37,-166.48 -212.09,-281.88 -4.65,-93.97 19.42,-165.484 126.64,-165.484 79.68,0 143.67,55.164 160.59,128.704 h 190 C 4770.71,905.691 4648.4,807.637 4435.93,807.637 c -115.4,0 -295.37,58.222 -281.97,328.883 11.64,234.93 165.37,431.02 412.52,431.02 182.82,0 302.18,-85.79 290.61,-277.8 h -189.96" /><path
         id="path42"
         style="fill:none;stroke:#231f20;stroke-width:28.3465004;stroke-linecap:butt;stroke-linejoin:miter;stroke-miterlimit:2.61310005;stroke-dasharray:none;stroke-opacity:1"
         d="m 4667.13,1289.74 c 11.51,67.41 -22.58,121.53 -111.45,121.53 -144.02,0 -206.37,-166.48 -212.09,-281.88 -4.65,-93.97 19.42,-165.484 126.64,-165.484 79.68,0 143.67,55.164 160.59,128.704 h 190 C 4770.71,905.691 4648.4,807.637 4435.93,807.637 c -115.4,0 -295.37,58.222 -281.97,328.883 11.64,234.93 165.37,431.02 412.52,431.02 182.82,0 302.18,-85.79 290.61,-277.8 z" /><path
         id="path44"
         style="fill:#231f20;fill-opacity:1;fill-rule:evenodd;stroke:none"
         d="m 15.5273,467.129 h 92.3517 c 68.641,0 98.285,-49.914 98.285,-111.375 0,-61.465 -29.644,-111.391 -98.285,-111.391 H 15.5273 Z m 39,-190.938 h 38.379 c 61.1487,0 74.2537,34.942 74.2537,79.563 0,44.605 -13.105,79.559 -74.2537,79.559 H 54.5273 V 276.191" /><path
         id="path46"
         style="fill:#231f20;fill-opacity:1;fill-rule:evenodd;stroke:none"
         d="m 263.566,315.813 c 0,-25.274 13.723,-47.735 43.368,-47.735 20.593,0 33.07,9.051 39.316,26.832 h 33.695 C 372.145,259.656 342.188,240 306.934,240 256.387,240 228,275.254 228,324.863 c 0,45.86 29.949,85.176 77.996,85.176 50.856,0 82.055,-45.867 76.129,-94.226 H 263.566 Z m 82.993,23.398 c -1.25,22.469 -16.539,42.742 -40.563,42.742 -24.648,0 -41.492,-18.719 -42.43,-42.742 h 82.993" /><path
         id="path48"
         style="fill:#231f20;fill-opacity:1;fill-rule:evenodd;stroke:none"
         d="m 550.914,244.363 h -34.941 v 22.465 h -0.625 C 506.617,250.605 487.266,240 469.48,240 c -42.117,0 -60.21,21.211 -60.21,63.332 v 102.34 h 35.566 v -98.906 c 0,-28.399 11.543,-38.688 30.887,-38.688 29.644,0 39.625,19.031 39.625,43.992 v 93.602 h 35.566 V 244.363" /><path
         id="path50"
         style="fill:#231f20;fill-opacity:1;fill-rule:evenodd;stroke:none"
         d="m 572.129,405.672 h 26.832 v 48.359 h 35.566 v -48.359 h 32.137 v -26.524 h -32.137 v -86.109 c 0,-14.672 1.25,-22.156 17.164,-22.156 4.993,0 9.981,0 14.973,1.246 v -27.453 c -7.801,-0.621 -15.285,-1.871 -23.09,-1.871 -37.121,0 -43.988,14.351 -44.613,41.187 v 95.156 h -26.832 v 26.524" /><path
         id="path52"
         style="fill:#231f20;fill-opacity:1;fill-rule:evenodd;stroke:none"
         d="m 719.082,296.16 c 1.871,-20.594 17.465,-28.082 36.5,-28.082 13.418,0 36.816,2.805 35.879,21.219 -0.934,18.719 -26.828,20.898 -52.723,26.828 -26.215,5.613 -51.789,14.98 -51.789,47.73 0,35.266 38.055,46.184 67.387,46.184 33.07,0 63.023,-13.73 67.387,-49.609 h -37.118 c -3.121,16.847 -17.164,21.523 -32.769,21.523 -10.293,0 -29.324,-2.488 -29.324,-16.531 0,-17.473 26.207,-19.973 52.414,-25.902 25.894,-5.926 52.105,-15.282 52.105,-47.11 0,-38.375 -38.691,-52.41 -72.074,-52.41 -40.555,0 -70.82,18.094 -71.445,56.16 h 35.57" /><path
         id="path54"
         style="fill:#231f20;fill-opacity:1;fill-rule:evenodd;stroke:none"
         d="m 963.063,351.691 c -2.809,19.657 -17.161,30.262 -36.817,30.262 -18.41,0 -44.305,-9.668 -44.305,-58.652 0,-26.836 11.86,-55.223 42.743,-55.223 20.597,0 34.945,13.727 38.379,36.817 h 35.566 C 992.074,263.086 966.184,240 924.684,240 c -50.543,0 -78.309,35.879 -78.309,83.301 0,48.672 26.516,86.738 79.559,86.738 37.441,0 69.261,-18.726 72.695,-58.348 h -35.566" /><path
         id="path56"
         style="fill:#231f20;fill-opacity:1;fill-rule:evenodd;stroke:none"
         d="m 1027.64,467.129 h 35.57 v -82.676 h 0.63 c 8.73,14.668 27.14,25.586 48.36,25.586 34.94,0 57.09,-18.726 57.09,-54.914 V 244.363 h -35.56 v 101.399 c -0.63,25.273 -10.62,36.191 -31.52,36.191 -23.71,0 -39,-18.719 -39,-42.433 v -95.157 h -35.57 v 222.766" /><path
         id="path58"
         style="fill:#231f20;fill-opacity:1;fill-rule:evenodd;stroke:none"
         d="m 1234.49,315.813 c 0,-25.274 13.74,-47.735 43.38,-47.735 20.59,0 33.08,9.051 39.3,26.832 h 33.7 c -7.8,-35.254 -37.74,-54.91 -73,-54.91 -50.55,0 -78.94,35.254 -78.94,84.863 0,45.86 29.95,85.176 78,85.176 50.85,0 82.05,-45.867 76.13,-94.226 h -118.57 z m 83,23.398 c -1.25,22.469 -16.54,42.742 -40.56,42.742 -24.65,0 -41.5,-18.719 -42.44,-42.742 h 83" /><path
         id="path60"
         style="fill:#231f20;fill-opacity:1;fill-rule:evenodd;stroke:none"
         d="m 1380.2,405.672 h 33.38 v -31.199 h 0.63 c 4.05,17.156 25.27,35.566 47.11,35.566 8.11,0 10.3,-0.625 13.42,-0.937 v -34.317 c -5,0.613 -10.3,1.551 -15.29,1.551 -24.34,0 -43.68,-19.645 -43.68,-55.223 v -76.75 h -35.57 v 161.309" /><path
         id="path62"
         style="fill:#231f20;fill-opacity:1;fill-rule:evenodd;stroke:none"
         d="m 1641.34,467.129 h 41.49 l 85.81,-222.766 h -41.81 l -20.9,58.969 h -88.92 l -20.91,-58.969 h -40.25 l 85.49,222.766 z m -13.73,-134.16 h 68.02 l -33.39,95.793 h -0.93 l -33.7,-95.793" /><path
         id="path64"
         style="fill:#231f20;fill-opacity:1;fill-rule:evenodd;stroke:none"
         d="m 1784.86,405.672 h 33.69 v -22.469 h 0.94 c 10.61,15.918 24.03,26.836 49.61,26.836 19.65,0 38.06,-8.43 45.24,-26.836 11.86,16.535 27.14,26.836 50.54,26.836 34.01,0 53.98,-14.98 53.98,-54.285 V 244.363 h -35.57 v 94.231 c 0,25.578 -1.56,43.359 -29.33,43.359 -24.02,0 -34.32,-15.91 -34.32,-43.055 v -94.535 h -35.56 v 103.586 c 0,22.149 -6.87,34.004 -28.4,34.004 -18.41,0 -35.25,-14.969 -35.25,-41.805 v -95.785 h -35.57 v 161.309" /><path
         id="path66"
         style="fill:#231f20;fill-opacity:1;fill-rule:evenodd;stroke:none"
         d="m 2191.39,280.242 c 0,-8.726 1.88,-12.164 8.43,-12.164 2.18,0 4.99,0 8.73,0.621 v -24.644 c -5.3,-1.879 -16.53,-4.055 -22.46,-4.055 -14.35,0 -24.65,4.992 -27.46,19.656 C 2144.6,245.926 2121.81,240 2102.79,240 c -29.02,0 -55.23,15.59 -55.23,47.109 0,40.243 32.14,46.797 62.09,50.235 25.58,4.676 48.36,1.867 48.36,22.773 0,18.41 -19.03,21.836 -33.38,21.836 -19.97,0 -34.01,-8.105 -35.57,-25.578 h -35.57 c 2.5,41.496 37.75,53.664 73.32,53.664 31.51,0 64.58,-12.793 64.58,-46.805 z m -35.56,44.934 c -10.93,-7.18 -28.09,-6.867 -43.68,-9.68 -15.29,-2.488 -29.02,-8.101 -29.02,-26.824 0,-15.918 20.28,-20.594 32.76,-20.594 15.6,0 39.94,8.113 39.94,30.574 v 26.524" /><path
         id="path68"
         style="fill:#231f20;fill-opacity:1;fill-rule:evenodd;stroke:none"
         d="m 2213.55,405.672 h 26.83 v 48.359 h 35.57 v -48.359 h 32.14 v -26.524 h -32.14 v -86.109 c 0,-14.672 1.24,-22.156 17.15,-22.156 5,0 9.99,0 14.99,1.246 v -27.453 c -7.81,-0.621 -15.3,-1.871 -23.1,-1.871 -37.11,0 -43.99,14.351 -44.61,41.187 v 95.156 h -26.83 v 26.524" /><path
         id="path70"
         style="fill:#231f20;fill-opacity:1;fill-rule:evenodd;stroke:none"
         d="m 2361.43,315.813 c 0,-25.274 13.73,-47.735 43.37,-47.735 20.59,0 33.08,9.051 39.31,26.832 h 33.7 c -7.8,-35.254 -37.75,-54.91 -73.01,-54.91 -50.54,0 -78.93,35.254 -78.93,84.863 0,45.86 29.94,85.176 77.99,85.176 50.86,0 82.07,-45.867 76.13,-94.226 h -118.56 z m 82.99,23.398 c -1.25,22.469 -16.53,42.742 -40.56,42.742 -24.64,0 -41.48,-18.719 -42.43,-42.742 h 82.99" /><path
         id="path72"
         style="fill:#231f20;fill-opacity:1;fill-rule:evenodd;stroke:none"
         d="m 2648.79,244.363 h -34.96 v 22.465 h -0.62 C 2604.48,250.605 2585.14,240 2567.35,240 c -42.12,0 -60.21,21.211 -60.21,63.332 v 102.34 h 35.56 v -98.906 c 0,-28.399 11.54,-38.688 30.89,-38.688 29.64,0 39.62,19.031 39.62,43.992 v 93.602 h 35.58 V 244.363" /><path
         id="path74"
         style="fill:#231f20;fill-opacity:1;fill-rule:evenodd;stroke:none"
         d="m 2686.22,405.672 h 33.39 v -31.199 h 0.62 c 4.06,17.156 25.27,35.566 47.11,35.566 8.11,0 10.3,-0.625 13.43,-0.937 v -34.317 c -5,0.613 -10.31,1.551 -15.3,1.551 -24.34,0 -43.68,-19.645 -43.68,-55.223 v -76.75 h -35.57 v 161.309" /><path
         id="path76"
         style="fill:#231f20;fill-opacity:1;fill-rule:evenodd;stroke:none"
         d="m 2775.47,312.383 h 90.8 v 33.691 h -90.8 v -33.691" /><path
         id="path78"
         style="fill:#231f20;fill-opacity:1;fill-rule:evenodd;stroke:none"
         d="m 2905.26,467.129 h 106.39 c 48.67,0 73.63,-22.461 73.63,-60.215 0,-42.742 -29.64,-53.664 -36.81,-56.152 v -0.625 c 13.41,-1.875 33.07,-11.856 33.07,-47.121 0,-25.887 3.74,-49.598 12.17,-58.653 h -41.81 c -5.92,9.672 -5.92,21.836 -5.92,32.766 0,40.867 -8.43,58.965 -44.31,58.965 h -57.41 v -91.731 h -39 z m 39,-101.395 h 63.96 c 24.65,0 38.07,12.164 38.07,35.567 0,28.394 -18.41,34.012 -38.68,34.012 h -63.35 v -69.579" /><path
         id="path80"
         style="fill:#231f20;fill-opacity:1;fill-rule:evenodd;stroke:none"
         d="m 3255.01,280.242 c 0,-8.726 1.88,-12.164 8.43,-12.164 2.18,0 4.99,0 8.73,0.621 v -24.644 c -5.3,-1.879 -16.53,-4.055 -22.46,-4.055 -14.36,0 -24.65,4.992 -27.47,19.656 C 3208.21,245.926 3185.45,240 3166.4,240 c -29.02,0 -55.22,15.59 -55.22,47.109 0,40.243 32.14,46.797 62.09,50.235 25.58,4.676 48.36,1.867 48.36,22.773 0,18.41 -19.03,21.836 -33.39,21.836 -19.97,0 -34,-8.105 -35.57,-25.578 h -35.56 c 2.49,41.496 37.75,53.664 73.32,53.664 31.51,0 64.58,-12.793 64.58,-46.805 z m -35.57,44.934 c -10.91,-7.18 -28.06,-6.867 -43.68,-9.68 -15.28,-2.488 -29.01,-8.101 -29.01,-26.824 0,-15.918 20.28,-20.594 32.77,-20.594 15.58,0 39.92,8.113 39.92,30.574 v 26.524" /><path
         id="path82"
         style="fill:#231f20;fill-opacity:1;fill-rule:evenodd;stroke:none"
         d="m 3445.33,244.363 h -33.7 v 21.836 h -0.62 C 3401.65,247.793 3381.37,240 3361.09,240 c -50.86,0 -75.51,37.754 -75.51,86.113 0,58.34 34.63,83.926 69.9,83.926 20.27,0 42.74,-7.488 53.66,-25.277 h 0.62 v 82.367 h 35.57 z m -79.56,23.715 c 31.83,0 45.24,29.012 45.24,57.098 0,35.566 -17.16,56.777 -44.62,56.777 -33.38,0 -45.24,-29.64 -45.24,-58.652 0,-27.766 13.73,-55.223 44.62,-55.223" /><path
         id="path84"
         style="fill:#231f20;fill-opacity:1;fill-rule:evenodd;stroke:none"
         d="m 3484.95,467.129 h 35.57 v -33.691 h -35.57 z m 0,-61.457 h 35.57 V 244.363 h -35.57 v 161.309" /><path
         id="path86"
         style="fill:#231f20;fill-opacity:1;fill-rule:evenodd;stroke:none"
         d="m 3551.72,325.176 c 0,49.297 29.64,84.863 81.43,84.863 51.79,0 81.43,-35.566 81.43,-84.863 0,-49.61 -29.64,-85.176 -81.43,-85.176 -51.79,0 -81.43,35.566 -81.43,85.176 z m 127.29,0 c 0,27.765 -14.03,56.777 -45.86,56.777 -31.82,0 -45.87,-29.012 -45.87,-56.777 0,-28.086 14.05,-57.098 45.87,-57.098 31.83,0 45.86,29.012 45.86,57.098" /><path
         id="path88"
         style="fill:#231f20;fill-opacity:1;fill-rule:evenodd;stroke:none"
         d="m 3740.79,312.383 h 90.8 v 33.691 h -90.8 v -33.691" /><path
         id="path90"
         style="fill:#231f20;fill-opacity:1;fill-rule:evenodd;stroke:none"
         d="m 4020.96,396.309 c -6.55,25.586 -23.08,44.308 -55.53,44.308 -47.74,0 -67.7,-42.121 -67.7,-84.863 0,-42.746 19.96,-84.871 67.7,-84.871 34.63,0 53.66,25.894 56.78,58.344 h 38.06 c -3.12,-53.348 -40.87,-90.164 -94.84,-90.164 -66.78,0 -106.71,53.039 -106.71,116.691 0,63.641 39.93,116.687 106.71,116.687 50.22,-0.312 89.85,-28.089 94.53,-76.132 h -39" /><path
         id="path92"
         style="fill:#231f20;fill-opacity:1;fill-rule:evenodd;stroke:none"
         d="m 4091.78,244.363 h 35.57 v 222.766 h -35.57 V 244.363" /><path
         id="path94"
         style="fill:#231f20;fill-opacity:1;fill-rule:evenodd;stroke:none"
         d="m 4307.69,244.363 h -34.95 v 22.465 h -0.62 C 4263.38,250.605 4244.04,240 4226.25,240 c -42.12,0 -60.22,21.211 -60.22,63.332 v 102.34 h 35.57 v -98.906 c 0,-28.399 11.54,-38.688 30.89,-38.688 29.64,0 39.63,19.031 39.63,43.992 v 93.602 h 35.57 V 244.363" /><path
         id="path96"
         style="fill:#231f20;fill-opacity:1;fill-rule:evenodd;stroke:none"
         d="m 4346.05,467.129 h 35.57 v -82.367 h 0.62 c 9.68,15.597 29.95,25.277 48.05,25.277 50.86,0 75.51,-38.691 75.51,-85.801 0,-43.367 -21.84,-84.238 -69.58,-84.238 -21.84,0 -45.23,5.305 -55.84,26.512 h -0.62 v -22.149 h -33.71 z m 79.58,-85.176 c -29.97,0 -45.25,-22.773 -45.25,-57.09 0,-32.453 16.53,-56.785 45.25,-56.785 32.43,0 44.6,28.699 44.6,56.785 0,29.328 -15.29,57.09 -44.6,57.09" /><path
         id="path98"
         style="fill:#231f20;fill-opacity:1;fill-rule:evenodd;stroke:none"
         d="m 4650.25,315.813 c 0,-25.274 13.73,-47.735 43.37,-47.735 20.6,0 33.07,9.051 39.31,26.832 h 33.7 c -7.8,-35.254 -37.75,-54.91 -73.01,-54.91 -50.55,0 -78.93,35.254 -78.93,84.863 0,45.86 29.95,85.176 78,85.176 50.86,0 82.05,-45.867 76.12,-94.226 h -118.56 z m 82.99,23.398 c -1.24,22.469 -16.53,42.742 -40.55,42.742 -24.65,0 -41.49,-18.719 -42.44,-42.742 h 82.99" /><path
         id="path100"
         style="fill:#231f20;fill-opacity:1;fill-rule:evenodd;stroke:none"
         d="m 4798.77,244.363 h 43.36 v 42.121 h -43.36 v -42.121" /><path
         id="path102"
         style="fill:#231f20;fill-opacity:1;fill-rule:evenodd;stroke:none"
         d="m 4862.41,467.129 h 40.56 l 55.84,-176.277 h 0.63 l 57.1,176.277 h 39.62 l -76.12,-222.766 h -43.36 l -74.27,222.766" /><path
         id="path104"
         style="fill:#231f20;fill-opacity:1;fill-rule:evenodd;stroke:none"
         d="m 5035.91,244.363 h 43.37 v 42.121 h -43.37 v -42.121" /><path
         id="path106"
         style="fill:#231f20;fill-opacity:1;fill-rule:evenodd;stroke:none"
         d="M 9.29688,176.453 H 89.1055 c 29.4455,0 48.7575,-13.34 48.7575,-40.711 0,-16.551 -8.508,-28.515 -23.453,-34.961 v -0.461 c 20.008,-4.363 30.82,-20.0075 30.82,-42.3122 0,-25.7617 -17.937,-45.7734 -60.4956,-45.7734 H 9.29688 Z M 38.0469,107.684 h 46.9179 c 13.8047,0 24.1522,8.046 24.1522,22.777 0,16.551 -8.512,22.539 -24.1522,22.539 H 38.0469 Z m 0,-71.9926 H 88.875 c 17.484,0 27.605,9.4336 27.605,25.9961 0,16.0977 -10.121,25.293 -27.605,25.293 H 38.0469 V 35.6914" /><path
         id="path108"
         style="fill:#231f20;fill-opacity:1;fill-rule:evenodd;stroke:none"
         d="m 271.957,12.2344 h -25.762 v 16.5625 h -0.453 c -6.445,-11.961 -20.707,-19.78518 -33.82,-19.78518 -31.047,0 -44.387,15.64458 -44.387,46.69138 v 75.4419 h 26.219 V 58.2344 c 0,-20.9297 8.512,-28.5196 22.769,-28.5196 21.852,0 29.219,14.0235 29.219,32.4336 v 68.9966 h 26.215 V 12.2344" /><path
         id="path110"
         style="fill:#231f20;fill-opacity:1;fill-rule:evenodd;stroke:none"
         d="m 299.551,131.145 h 24.844 V 113.66 l 0.457,-0.457 c 7.824,13.117 21.398,21.164 37.031,21.164 25.762,0 42.097,-13.801 42.097,-40.4803 V 12.2344 h -26.226 v 74.7461 c -0.457,18.6325 -7.82,26.6795 -23.227,26.6795 -17.484,0 -28.757,-13.7967 -28.757,-31.2772 V 12.2344 H 299.551 V 131.145" /><path
         id="path112"
         style="fill:#231f20;fill-opacity:1;fill-rule:evenodd;stroke:none"
         d="M 543.586,12.2344 H 518.738 V 28.332 h -0.457 C 511.383,14.7656 496.43,9.01172 481.48,9.01172 c -37.492,0 -55.656,27.83598 -55.656,63.48048 0,43.0158 25.528,61.8748 51.516,61.8748 14.949,0 31.512,-5.519 39.558,-18.637 h 0.465 v 60.723 h 26.223 z M 484.93,29.7148 c 23.465,0 33.351,21.3907 33.351,42.0899 0,26.2226 -12.652,41.8553 -32.886,41.8553 -24.614,0 -33.356,-21.8436 -33.356,-43.2303 0,-20.4805 10.125,-40.7149 32.891,-40.7149" /><path
         id="path114"
         style="fill:#231f20;fill-opacity:1;fill-rule:evenodd;stroke:none"
         d="m 592.566,64.9023 c 0,-18.621 10.125,-35.1875 31.973,-35.1875 15.188,0 24.383,6.6719 28.981,19.7774 h 24.839 C 672.605,23.5078 650.527,9.01172 624.539,9.01172 587.281,9.01172 566.348,35 566.348,71.5742 c 0,33.8088 22.082,62.7928 57.5,62.7928 37.496,0 60.496,-33.808 56.125,-69.4647 h -87.407 z m 61.184,17.254 c -0.918,16.5546 -12.191,31.5037 -29.902,31.5037 -18.168,0 -30.59,-13.7967 -31.282,-31.5037 h 61.184" /><path
         id="path116"
         style="fill:#231f20;fill-opacity:1;fill-rule:evenodd;stroke:none"
         d="m 719.762,50.4102 c 1.379,-15.1758 12.879,-20.6954 26.91,-20.6954 9.887,0 27.137,2.0704 26.453,15.6368 -0.691,13.8007 -19.785,15.4101 -38.875,19.7851 -19.32,4.1406 -38.18,11.0352 -38.18,35.1833 0,26 28.063,34.047 49.676,34.047 24.387,0 46.465,-10.117 49.684,-36.574 h -27.367 c -2.301,12.422 -12.649,15.867 -24.149,15.867 -7.594,0 -21.625,-1.836 -21.625,-12.183 0,-12.8832 19.32,-14.7192 38.641,-19.0942 19.09,-4.3672 38.41,-11.2695 38.41,-34.7265 0,-28.293 -28.52,-38.64458 -53.129,-38.64458 -29.902,0 -52.211,13.33988 -52.672,41.39848 h 26.223" /><path
         id="path118"
         style="fill:#231f20;fill-opacity:1;fill-rule:evenodd;stroke:none"
         d="m 807.617,131.145 h 28.52 L 866.27,39.832 h 0.46 l 28.977,91.313 h 27.145 L 880.297,12.2344 H 850.859 L 807.617,131.145" /><path
         id="path120"
         style="fill:#231f20;fill-opacity:1;fill-rule:evenodd;stroke:none"
         d="m 959.191,64.9023 c 0,-18.621 10.114,-35.1875 31.969,-35.1875 15.18,0 24.38,6.6719 28.98,19.7774 h 24.84 C 1039.23,23.5078 1017.15,9.01172 991.16,9.01172 953.898,9.01172 932.969,35 932.969,71.5742 c 0,33.8088 22.078,62.7928 57.5,62.7928 37.491,0 60.491,-33.808 56.111,-69.4647 h -87.389 z m 61.179,17.254 c -0.92,16.5546 -12.19,31.5037 -29.901,31.5037 -18.168,0 -30.59,-13.7967 -31.278,-31.5037 h 61.179" /><path
         id="path122"
         style="fill:#231f20;fill-opacity:1;fill-rule:evenodd;stroke:none"
         d="m 1066.6,131.145 h 24.61 v -23 h 0.46 c 2.98,12.648 18.63,26.222 34.73,26.222 5.98,0 7.59,-0.461 9.89,-0.695 v -25.293 c -3.69,0.457 -7.6,1.141 -11.27,1.141 -17.94,0 -32.21,-14.4809 -32.21,-40.7036 V 12.2344 H 1066.6 V 131.145" /><path
         id="path124"
         style="fill:#231f20;fill-opacity:1;fill-rule:evenodd;stroke:none"
         d="m 1148.24,176.453 h 26.22 V 115.73 h 0.46 c 7.13,11.508 22.09,18.637 35.43,18.637 37.48,0 55.66,-28.515 55.66,-63.2537 0,-31.9727 -16.11,-62.10158 -51.3,-62.10158 -16.1,0 -33.34,3.90628 -41.16,19.55078 h -0.47 V 12.2344 h -24.84 z m 58.65,-62.793 c -22.08,0 -33.34,-16.785 -33.34,-42.0858 0,-23.9179 12.19,-41.8594 33.34,-41.8594 23.92,0 32.89,21.1641 32.89,41.8594 0,21.6172 -11.27,42.0858 -32.89,42.0858" /><path
         id="path126"
         style="fill:#231f20;fill-opacity:1;fill-rule:evenodd;stroke:none"
         d="m 1387.67,38.6797 c 0,-6.4336 1.38,-8.9649 6.22,-8.9649 1.6,0 3.67,0 6.43,0.461 V 12.0039 c -3.9,-1.3789 -12.19,-2.99218 -16.56,-2.99218 -10.58,0 -18.17,3.68358 -20.23,14.49608 -10.36,-10.1172 -27.15,-14.49608 -41.18,-14.49608 -21.39,0 -40.71,11.50778 -40.71,34.72658 0,29.6797 23.69,34.5039 45.77,37.0351 18.86,3.4571 35.65,1.3829 35.65,16.7969 0,13.5627 -14.03,16.0897 -24.61,16.0897 -14.72,0 -25.07,-5.976 -26.22,-18.8553 h -26.22 c 1.84,30.5933 27.83,39.5623 54.05,39.5623 23.24,0 47.61,-9.437 47.61,-34.5037 z m -26.22,33.125 c -8.05,-5.293 -20.7,-5.0547 -32.2,-7.1289 -11.27,-1.8438 -21.39,-5.9844 -21.39,-19.7813 0,-11.7304 14.95,-15.1797 24.15,-15.1797 11.5,0 29.44,5.9766 29.44,22.5391 v 19.5508" /><path
         id="path128"
         style="fill:#231f20;fill-opacity:1;fill-rule:evenodd;stroke:none"
         d="m 1415.96,131.145 h 24.85 V 113.66 l 0.45,-0.457 c 7.82,13.117 21.39,21.164 37.04,21.164 25.75,0 42.09,-13.801 42.09,-40.4803 V 12.2344 h -26.22 v 74.7461 c -0.46,18.6325 -7.83,26.6795 -23.24,26.6795 -17.48,0 -28.75,-13.7967 -28.75,-31.2772 V 12.2344 h -26.22 V 131.145" /><path
         id="path130"
         style="fill:#231f20;fill-opacity:1;fill-rule:evenodd;stroke:none"
         d="m 1659.99,12.2344 h -24.84 V 28.332 h -0.46 c -6.9,-13.5664 -21.85,-19.32028 -36.8,-19.32028 -37.49,0 -55.66,27.83598 -55.66,63.48048 0,43.0158 25.53,61.8748 51.52,61.8748 14.95,0 31.51,-5.519 39.56,-18.637 h 0.46 v 60.723 h 26.22 z m -58.65,17.4804 c 23.46,0 33.35,21.3907 33.35,42.0899 0,26.2226 -12.65,41.8553 -32.89,41.8553 -24.61,0 -33.35,-21.8436 -33.35,-43.2303 0,-20.4805 10.11,-40.7149 32.89,-40.7149" /><path
         id="path132"
         style="fill:#231f20;fill-opacity:1;fill-rule:evenodd;stroke:none"
         d="m 1740.72,131.145 h 19.55 v 9.89 c 0,30.36 15.87,35.418 32.89,35.418 8.28,0 14.26,-0.457 18.4,-1.609 v -20.469 c -3.45,0.918 -6.9,1.375 -12.19,1.375 -7.13,0 -12.88,-2.527 -12.88,-12.41 v -12.195 h 22.31 V 111.59 h -22.31 V 12.2344 h -26.22 V 111.59 h -19.55 v 19.555" /><path
         id="path134"
         style="fill:#231f20;fill-opacity:1;fill-rule:evenodd;stroke:none"
         d="m 1929.31,12.2344 h -25.76 v 16.5625 h -0.46 c -6.44,-11.961 -20.69,-19.78518 -33.8,-19.78518 -31.05,0 -44.39,15.64458 -44.39,46.69138 v 75.4419 h 26.22 V 58.2344 c 0,-20.9297 8.51,-28.5196 22.77,-28.5196 21.85,0 29.2,14.0235 29.2,32.4336 v 68.9966 h 26.22 z m -84.86,137.7736 v 24.836 h 26.22 v -24.836 h -26.22 z m 65.78,24.836 v -24.836 h -26.22 v 24.836 h 26.22" /><path
         id="path136"
         style="fill:#231f20;fill-opacity:1;fill-rule:evenodd;stroke:none"
         d="m 1956.91,131.145 h 24.61 v -23 h 0.46 c 3,12.648 18.64,26.222 34.73,26.222 5.98,0 7.6,-0.461 9.9,-0.695 v -25.293 c -3.69,0.457 -7.6,1.141 -11.28,1.141 -17.94,0 -32.2,-14.4809 -32.2,-40.7036 v -56.582 h -26.22 V 131.145" /><path
         id="path138"
         style="fill:#231f20;fill-opacity:1;fill-rule:evenodd;stroke:none"
         d="m 2149.42,176.453 h 30.59 l 63.25,-164.2186 h -30.82 l -15.4,43.4687 h -65.56 l -15.41,-43.4687 h -29.67 l 63.02,164.2186 z M 2139.3,77.5586 h 50.14 l -24.61,70.6054 h -0.69 L 2139.3,77.5586" /><path
         id="path140"
         style="fill:#231f20;fill-opacity:1;fill-rule:evenodd;stroke:none"
         d="m 2255.22,131.145 h 24.84 V 114.59 h 0.69 c 7.82,11.73 17.71,19.777 36.57,19.777 14.49,0 28.06,-6.211 33.35,-19.777 8.74,12.187 20.01,19.777 37.26,19.777 25.07,0 39.79,-11.035 39.79,-40.0193 V 12.2344 h -26.22 v 69.4648 c 0,18.8598 -1.15,31.9608 -21.62,31.9608 -17.71,0 -25.3,-11.726 -25.3,-31.7381 V 12.2344 h -26.22 v 76.3594 c 0,16.3282 -5.06,25.0662 -20.93,25.0662 -13.57,0 -25.98,-11.035 -25.98,-30.8202 V 12.2344 h -26.23 V 131.145" /><path
         id="path142"
         style="fill:#231f20;fill-opacity:1;fill-rule:evenodd;stroke:none"
         d="m 2554.91,38.6797 c 0,-6.4336 1.38,-8.9649 6.21,-8.9649 1.61,0 3.68,0 6.44,0.461 V 12.0039 c -3.91,-1.3789 -12.19,-2.99218 -16.56,-2.99218 -10.58,0 -18.17,3.68358 -20.24,14.49608 -10.35,-10.1172 -27.13,-14.49608 -41.17,-14.49608 -21.39,0 -40.71,11.50778 -40.71,34.72658 0,29.6797 23.68,34.5039 45.77,37.0351 18.87,3.4571 35.65,1.3829 35.65,16.7969 0,13.5627 -14.03,16.0897 -24.61,16.0897 -14.73,0 -25.06,-5.976 -26.22,-18.8553 h -26.23 c 1.85,30.5933 27.84,39.5623 54.06,39.5623 23.23,0 47.61,-9.437 47.61,-34.5037 z m -26.22,33.125 c -8.05,-5.293 -20.7,-5.0547 -32.2,-7.1289 -11.27,-1.8438 -21.39,-5.9844 -21.39,-19.7813 0,-11.7304 14.95,-15.1797 24.14,-15.1797 11.5,0 29.45,5.9766 29.45,22.5391 v 19.5508" /><path
         id="path144"
         style="fill:#231f20;fill-opacity:1;fill-rule:evenodd;stroke:none"
         d="m 2571.25,131.145 h 19.76 v 35.652 h 26.23 v -35.652 h 23.69 V 111.59 h -23.69 V 48.1172 c 0,-10.8125 0.91,-16.332 12.65,-16.332 3.67,0 7.35,0 11.04,0.9179 V 12.4609 c -5.75,-0.457 -11.28,-1.375 -17.03,-1.375 -27.36,0 -32.42,10.5743 -32.89,30.3594 V 111.59 h -19.76 v 19.555" /><path
         id="path146"
         style="fill:#231f20;fill-opacity:1;fill-rule:evenodd;stroke:none"
         d="m 2680.25,64.9023 c 0,-18.621 10.13,-35.1875 31.98,-35.1875 15.18,0 24.38,6.6719 28.98,19.7774 h 24.83 c -5.75,-25.9844 -27.82,-40.48048 -53.81,-40.48048 -37.26,0 -58.2,25.98828 -58.2,62.56248 0,33.8088 22.08,62.7928 57.51,62.7928 37.48,0 60.5,-33.808 56.11,-69.4647 h -87.4 z m 61.19,17.254 c -0.92,16.5546 -12.2,31.5037 -29.9,31.5037 -18.17,0 -30.59,-13.7967 -31.29,-31.5037 h 61.19" /><path
         id="path148"
         style="fill:#231f20;fill-opacity:1;fill-rule:evenodd;stroke:none"
         d="m 2892.09,12.2344 h -25.76 v 16.5625 h -0.46 c -6.45,-11.961 -20.7,-19.78518 -33.81,-19.78518 -31.05,0 -44.39,15.64458 -44.39,46.69138 v 75.4419 h 26.22 V 58.2344 c 0,-20.9297 8.51,-28.5196 22.77,-28.5196 21.85,0 29.21,14.0235 29.21,32.4336 v 68.9966 h 26.22 V 12.2344" /><path
         id="path150"
         style="fill:#231f20;fill-opacity:1;fill-rule:evenodd;stroke:none"
         d="m 2919.69,131.145 h 24.61 v -23 h 0.46 c 2.98,12.648 18.63,26.222 34.72,26.222 5.99,0 7.59,-0.461 9.89,-0.695 v -25.293 c -3.68,0.457 -7.58,1.141 -11.26,1.141 -17.94,0 -32.21,-14.4809 -32.21,-40.7036 v -56.582 h -26.21 V 131.145" /><path
         id="path152"
         style="fill:#231f20;fill-opacity:1;fill-rule:evenodd;stroke:none"
         d="m 2988.91,131.145 h 19.56 v 9.89 c 0,30.36 15.86,35.418 32.88,35.418 8.28,0 14.26,-0.457 18.4,-1.609 v -20.469 c -3.45,0.918 -6.9,1.375 -12.19,1.375 -7.13,0 -12.87,-2.527 -12.87,-12.41 v -12.195 h 22.3 V 111.59 h -22.3 V 12.2344 h -26.22 V 111.59 h -19.56 v 19.555" /><path
         id="path154"
         style="fill:#231f20;fill-opacity:1;fill-rule:evenodd;stroke:none"
         d="m 3177.51,12.2344 h -25.76 v 16.5625 h -0.46 c -6.44,-11.961 -20.71,-19.78518 -33.81,-19.78518 -31.05,0 -44.39,15.64458 -44.39,46.69138 v 75.4419 h 26.22 V 58.2344 c 0,-20.9297 8.51,-28.5196 22.77,-28.5196 21.84,0 29.21,14.0235 29.21,32.4336 v 68.9966 h 26.22 V 12.2344" /><path
         id="path156"
         style="fill:#231f20;fill-opacity:1;fill-rule:evenodd;stroke:none"
         d="m 3205.11,131.145 h 24.84 V 113.66 l 0.46,-0.457 c 7.81,13.117 21.39,21.164 37.03,21.164 25.75,0 42.1,-13.801 42.1,-40.4803 V 12.2344 h -26.23 v 74.7461 c -0.46,18.6325 -7.82,26.6795 -23.23,26.6795 -17.48,0 -28.75,-13.7967 -28.75,-31.2772 V 12.2344 h -26.22 V 131.145" /><path
         id="path158"
         style="fill:#231f20;fill-opacity:1;fill-rule:evenodd;stroke:none"
         d="m 3337.81,176.453 h 26.22 V 83.0742 l 47.39,48.0708 h 32.19 l -45.53,-43.7036 49.91,-75.207 h -31.97 l -36.35,57.7265 -15.64,-15.1757 V 12.2344 h -26.22 V 176.453" /><path
         id="path160"
         style="fill:#231f20;fill-opacity:1;fill-rule:evenodd;stroke:none"
         d="m 3525.27,176.453 h 26.21 v -24.84 h -26.21 z m 0,-45.308 h 26.21 V 12.2344 h -26.21 V 131.145" /><path
         id="path162"
         style="fill:#231f20;fill-opacity:1;fill-rule:evenodd;stroke:none"
         d="m 3580,131.145 h 24.84 V 113.66 l 0.46,-0.457 c 7.83,13.117 21.4,21.164 37.03,21.164 25.77,0 42.09,-13.801 42.09,-40.4803 V 12.2344 h -26.22 v 74.7461 c -0.46,18.6325 -7.82,26.6795 -23.23,26.6795 -17.48,0 -28.75,-13.7967 -28.75,-31.2772 V 12.2344 H 3580 V 131.145" /><path
         id="path164"
         style="fill:#231f20;fill-opacity:1;fill-rule:evenodd;stroke:none"
         d="m 3779.64,176.453 h 68.07 c 50.61,0 72.46,-36.793 72.46,-82.1053 0,-45.3164 -21.85,-82.1133 -72.46,-82.1133 h -68.07 z m 28.75,-140.7616 h 28.29 c 45.08,0 54.73,25.7656 54.73,58.6563 0,32.8903 -9.65,58.6523 -54.73,58.6523 h -28.29 V 35.6914" /><path
         id="path166"
         style="fill:#231f20;fill-opacity:1;fill-rule:evenodd;stroke:none"
         d="m 3962.48,64.9023 c 0,-18.621 10.13,-35.1875 31.97,-35.1875 15.19,0 24.39,6.6719 28.99,19.7774 h 24.83 c -5.74,-25.9844 -27.82,-40.48048 -53.82,-40.48048 -37.25,0 -58.18,25.98828 -58.18,62.56248 0,33.8088 22.08,62.7928 57.5,62.7928 37.49,0 60.49,-33.808 56.11,-69.4647 h -87.4 z m 61.18,17.254 c -0.92,16.5546 -12.19,31.5037 -29.89,31.5037 -18.18,0 -30.6,-13.7967 -31.29,-31.5037 h 61.18" /><path
         id="path168"
         style="fill:#231f20;fill-opacity:1;fill-rule:evenodd;stroke:none"
         d="m 4174.31,12.2344 h -25.76 v 16.5625 h -0.46 c -6.43,-11.961 -20.7,-19.78518 -33.81,-19.78518 -31.05,0 -44.39,15.64458 -44.39,46.69138 v 75.4419 h 26.22 V 58.2344 c 0,-20.9297 8.52,-28.5196 22.78,-28.5196 21.84,0 29.2,14.0235 29.2,32.4336 v 68.9966 h 26.22 V 12.2344" /><path
         id="path170"
         style="fill:#231f20;fill-opacity:1;fill-rule:evenodd;stroke:none"
         d="m 4189.95,131.145 h 19.79 v 35.652 h 26.22 v -35.652 h 23.68 V 111.59 h -23.68 V 48.1172 c 0,-10.8125 0.92,-16.332 12.64,-16.332 3.68,0 7.37,0 11.04,0.9179 V 12.4609 c -5.75,-0.457 -11.26,-1.375 -17.01,-1.375 -27.38,0 -32.43,10.5743 -32.89,30.3594 V 111.59 h -19.79 v 19.555" /><path
         id="path172"
         style="fill:#231f20;fill-opacity:1;fill-rule:evenodd;stroke:none"
         d="m 4298.29,50.4102 c 1.36,-15.1758 12.87,-20.6954 26.9,-20.6954 9.89,0 27.14,2.0704 26.45,15.6368 -0.69,13.8007 -19.76,15.4101 -38.87,19.7851 -19.33,4.1406 -38.18,11.0352 -38.18,35.1833 0,26 28.05,34.047 49.68,34.047 24.38,0 46.46,-10.117 49.68,-36.574 h -27.37 c -2.29,12.422 -12.65,15.867 -24.15,15.867 -7.59,0 -21.62,-1.836 -21.62,-12.183 0,-12.8832 19.32,-14.7192 38.64,-19.0942 19.09,-4.3672 38.41,-11.2695 38.41,-34.7265 0,-28.293 -28.51,-38.64458 -53.13,-38.64458 -29.9,0 -52.21,13.33988 -52.67,41.39848 h 26.23" /><path
         id="path174"
         style="fill:#231f20;fill-opacity:1;fill-rule:evenodd;stroke:none"
         d="m 4478.14,91.3555 c -2.07,14.4965 -12.65,22.3045 -27.15,22.3045 -13.56,0 -32.65,-7.129 -32.65,-43.2303 0,-19.7852 8.75,-40.7149 31.51,-40.7149 15.19,0 25.77,10.1172 28.29,27.1407 h 26.22 c -4.83,-30.8203 -23.92,-47.84378 -54.51,-47.84378 -37.27,0 -57.72,26.45708 -57.72,61.41798 0,35.8793 19.54,63.9373 58.64,63.9373 27.61,0 51.06,-13.801 53.59,-43.0115 h -26.22" /><path
         id="path176"
         style="fill:#231f20;fill-opacity:1;fill-rule:evenodd;stroke:none"
         d="m 4525.75,176.453 h 26.22 v -60.945 h 0.46 c 6.44,10.812 20.01,18.859 35.65,18.859 25.76,0 42.09,-13.801 42.09,-40.4803 V 12.2344 h -26.22 v 74.7461 c -0.46,18.6325 -7.82,26.6795 -23.23,26.6795 -17.48,0 -28.75,-13.7967 -28.75,-31.2772 V 12.2344 h -26.22 V 176.453" /><path
         id="path178"
         style="fill:#231f20;fill-opacity:1;fill-rule:evenodd;stroke:none"
         d="m 4658.46,12.2344 h 26.22 V 176.453 h -26.22 V 12.2344" /><path
         id="path180"
         style="fill:#231f20;fill-opacity:1;fill-rule:evenodd;stroke:none"
         d="m 4812.78,38.6797 c 0,-6.4336 1.39,-8.9649 6.21,-8.9649 1.61,0 3.68,0 6.45,0.461 V 12.0039 c -3.92,-1.3789 -12.19,-2.99218 -16.56,-2.99218 -10.58,0 -18.18,3.68358 -20.25,14.49608 -10.34,-10.1172 -27.14,-14.49608 -41.16,-14.49608 -21.4,0 -40.7,11.50778 -40.7,34.72658 0,29.6797 23.68,34.5039 45.76,37.0351 18.86,3.4571 35.64,1.3829 35.64,16.7969 0,13.5627 -14.02,16.0897 -24.61,16.0897 -14.71,0 -25.07,-5.976 -26.22,-18.8553 h -26.21 c 1.84,30.5933 27.82,39.5623 54.04,39.5623 23.23,0 47.61,-9.437 47.61,-34.5037 z m -26.22,33.125 c -8.05,-5.293 -20.69,-5.0547 -32.19,-7.1289 -11.27,-1.8438 -21.39,-5.9844 -21.39,-19.7813 0,-11.7304 14.95,-15.1797 24.15,-15.1797 11.49,0 29.43,5.9766 29.43,22.5391 v 19.5508" /><path
         id="path182"
         style="fill:#231f20;fill-opacity:1;fill-rule:evenodd;stroke:none"
         d="m 4841.07,131.145 h 24.85 V 113.66 l 0.46,-0.457 c 7.82,13.117 21.38,21.164 37.03,21.164 25.76,0 42.08,-13.801 42.08,-40.4803 V 12.2344 h -26.21 v 74.7461 c -0.47,18.6325 -7.82,26.6795 -23.24,26.6795 -17.48,0 -28.74,-13.7967 -28.74,-31.2772 V 12.2344 h -26.23 V 131.145" /><path
         id="path184"
         style="fill:#231f20;fill-opacity:1;fill-rule:evenodd;stroke:none"
         d="m 5085.1,12.2344 h -24.84 V 28.332 h -0.46 c -6.89,-13.5664 -21.84,-19.32028 -36.79,-19.32028 -37.5,0 -55.67,27.83598 -55.67,63.48048 0,43.0158 25.54,61.8748 51.53,61.8748 14.95,0 31.5,-5.519 39.55,-18.637 h 0.47 v 60.723 h 26.21 z m -58.64,17.4804 c 23.45,0 33.34,21.3907 33.34,42.0899 0,26.2226 -12.64,41.8553 -32.89,41.8553 -24.61,0 -33.35,-21.8436 -33.35,-43.2303 0,-20.4805 10.12,-40.7149 32.9,-40.7149" /></g></g></svg>